<svg width="232" height="155" viewBox="0 0 232 155" fill="none" xmlns="http://www.w3.org/2000/svg">
<g opacity="0.4">
<path opacity="0.5" d="M197.817 104.708C166.869 90.6796 141.272 103.808 136.744 134.042C135.958 139.299 141.085 146.212 147.297 149.029L248.3 194.803C254.512 197.62 259.639 195.355 258.89 189.401C254.362 155.041 228.765 118.707 197.817 104.708Z" fill="url(#paint0_linear_15163_97269)"/>
<path opacity="0.5" d="M232.321 65.4079C232.321 86.2907 216.754 96.1657 197.556 87.4525C178.396 78.7683 162.828 54.8068 162.828 33.9241C162.828 13.0413 178.396 3.16629 197.593 11.8795C216.791 20.5637 232.321 44.5542 232.321 65.4079Z" fill="url(#paint1_linear_15163_97269)"/>
<path opacity="0.07" d="M212.786 95.997C181.838 81.9686 156.241 95.0966 151.713 125.332C150.927 130.589 156.054 137.501 162.266 140.318L263.269 186.092C269.481 188.909 274.607 186.644 273.859 180.69C269.331 146.33 243.734 109.996 212.786 95.997Z" fill="url(#paint2_linear_15163_97269)"/>
<path opacity="0.07" d="M247.29 56.697C247.29 77.5798 231.722 87.4548 212.525 78.7415C193.365 70.0573 177.797 46.0959 177.797 25.2131C177.797 4.33036 193.365 -5.54465 212.562 3.1686C231.76 11.8528 247.29 35.8433 247.29 56.697Z" fill="url(#paint3_linear_15163_97269)"/>
<path opacity="0.2" d="M69.7584 115.363L0.078125 84.1406V112.313L69.7959 143.536L69.7584 115.363Z" fill="url(#paint4_linear_15163_97269)"/>
<path d="M14.2226 99.9424C14.2226 102.266 12.4637 103.341 10.2558 102.382C8.08533 101.395 6.28906 98.7225 6.28906 96.399C6.28906 94.0755 8.04791 93.0008 10.2558 93.9593C12.4637 94.9468 14.2226 97.6189 14.2226 99.9424Z" fill="#F2994A"/>
<path opacity="0.15" d="M17.8203 99.0703L40.6105 109.265V113.215L17.8203 103.02V99.0703Z" fill="white"/>
<path opacity="0.15" d="M17.9297 107.031L62.5745 127.043V130.993L17.9297 110.981V107.031Z" fill="white"/>
<path opacity="0.05" d="M179.781 143.773L249.798 175.141V292.16L179.781 260.821V143.773Z" fill="url(#paint5_linear_15163_97269)"/>
<path opacity="0.3" d="M238.125 182.985L168.07 151.617V268.636L238.087 300.004L238.125 182.985ZM190.898 169.334L214.287 179.79V184.437L190.898 174.126V169.334Z" fill="url(#paint6_linear_15163_97269)"/>
<path opacity="0.05" d="M92.5859 49.5781L162.603 80.9458V197.965L92.5859 166.597V49.5781Z" fill="url(#paint7_linear_15163_97269)"/>
<path opacity="0.3" d="M150.93 88.8755L80.875 57.5078V174.527L150.892 205.894L150.93 88.8755ZM103.703 75.2248L127.092 85.6807V90.3277L103.703 80.017V75.2248Z" fill="url(#paint8_linear_15163_97269)"/>
<path opacity="0.15" d="M87.6484 131.547L143.894 156.728V160.678L87.6484 135.497V131.547Z" fill="white"/>
<path opacity="0.15" d="M91.5765 141.039L139.926 162.706V166.656L91.5391 144.989L91.5765 141.039Z" fill="white"/>
<path d="M131.546 121.73C131.546 112.465 124.548 101.805 115.941 97.9425C107.334 94.0796 100.336 98.4653 100.336 107.73C100.336 116.995 107.334 127.655 115.941 131.518C124.548 135.38 131.546 130.995 131.546 121.73Z" fill="#F2C94C"/>
<path opacity="0.3" d="M131.541 186.992L20.1719 137.094L20.2093 182.141L121.736 227.624L131.578 238.923L131.541 186.992Z" fill="url(#paint9_linear_15163_97269)"/>
<path d="M8.3125 154.665V142.438L50.3377 161.258V173.486L8.3125 154.665Z" fill="#F2994A"/>
<path opacity="0.2" d="M44.2363 51.8181C46.4816 52.8056 48.2779 55.2453 48.2779 57.2494V66.1079L55.8372 69.477C58.0825 70.4645 59.8788 72.9042 59.8788 74.9082C59.8788 76.9123 58.0825 77.7255 55.8372 76.738L48.2779 73.3689V82.2274C48.2779 84.2314 46.4816 85.0447 44.2363 84.0572C41.9909 83.0697 40.1947 80.63 40.1947 78.6259V69.7674L32.6354 66.3983C30.39 65.4108 28.5938 62.9711 28.5938 60.967C28.5938 58.963 30.39 58.1498 32.6354 59.1373L40.1947 62.5064V53.6479C40.1947 51.6439 41.9909 50.8306 44.2363 51.8181Z" fill="url(#paint10_linear_15163_97269)"/>
</g>
<defs>
<linearGradient id="paint0_linear_15163_97269" x1="325.515" y1="81.8263" x2="223.252" y2="177.943" gradientUnits="userSpaceOnUse">
<stop stop-color="white"/>
<stop offset="1" stop-color="white" stop-opacity="0"/>
</linearGradient>
<linearGradient id="paint1_linear_15163_97269" x1="261.453" y1="13.5057" x2="159.189" y2="109.623" gradientUnits="userSpaceOnUse">
<stop stop-color="white"/>
<stop offset="1" stop-color="white" stop-opacity="0"/>
</linearGradient>
<linearGradient id="paint2_linear_15163_97269" x1="340.484" y1="73.1153" x2="238.22" y2="169.232" gradientUnits="userSpaceOnUse">
<stop stop-color="white"/>
<stop offset="1" stop-color="white" stop-opacity="0"/>
</linearGradient>
<linearGradient id="paint3_linear_15163_97269" x1="276.421" y1="4.79475" x2="174.158" y2="100.912" gradientUnits="userSpaceOnUse">
<stop stop-color="white"/>
<stop offset="1" stop-color="white" stop-opacity="0"/>
</linearGradient>
<linearGradient id="paint4_linear_15163_97269" x1="42.7826" y1="103.279" x2="32.2677" y2="126.751" gradientUnits="userSpaceOnUse">
<stop stop-color="white"/>
<stop offset="1" stop-color="white" stop-opacity="0"/>
</linearGradient>
<linearGradient id="paint5_linear_15163_97269" x1="255.458" y1="163.317" x2="197.461" y2="292.781" gradientUnits="userSpaceOnUse">
<stop stop-color="white"/>
<stop offset="1" stop-color="white" stop-opacity="0"/>
</linearGradient>
<linearGradient id="paint6_linear_15163_97269" x1="243.748" y1="171.146" x2="185.751" y2="300.61" gradientUnits="userSpaceOnUse">
<stop stop-color="white"/>
<stop offset="1" stop-color="white" stop-opacity="0"/>
</linearGradient>
<linearGradient id="paint7_linear_15163_97269" x1="168.259" y1="69.1162" x2="110.263" y2="198.58" gradientUnits="userSpaceOnUse">
<stop stop-color="white"/>
<stop offset="1" stop-color="white" stop-opacity="0"/>
</linearGradient>
<linearGradient id="paint8_linear_15163_97269" x1="156.553" y1="77.0366" x2="98.556" y2="206.5" gradientUnits="userSpaceOnUse">
<stop stop-color="white"/>
<stop offset="1" stop-color="white" stop-opacity="0"/>
</linearGradient>
<linearGradient id="paint9_linear_15163_97269" x1="107.254" y1="168.951" x2="61.2872" y2="215.323" gradientUnits="userSpaceOnUse">
<stop stop-color="white"/>
<stop offset="1" stop-color="white" stop-opacity="0"/>
</linearGradient>
<linearGradient id="paint10_linear_15163_97269" x1="52.0494" y1="63.1423" x2="36.4165" y2="79.0384" gradientUnits="userSpaceOnUse">
<stop stop-color="white"/>
<stop offset="1" stop-color="white" stop-opacity="0"/>
</linearGradient>
</defs>
</svg>
