<svg width="18" height="18" viewBox="0 0 18 18" fill="none" xmlns="http://www.w3.org/2000/svg">
<g id="fi-rr-copy-alt" clipPath="url(#clip0_13250_93926)">
<path id="Vector" d="M9.75 15.0001C10.7442 14.9989 11.6973 14.6035 12.4003 13.9005C13.1033 13.1975 13.4988 12.2443 13.5 11.2501V4.68238C13.5012 4.28815 13.4241 3.89761 13.2732 3.5334C13.1223 3.16918 12.9006 2.83854 12.621 2.56064L10.9395 0.879135C10.6616 0.599515 10.3309 0.377837 9.96674 0.22695C9.60252 0.0760632 9.21198 -0.00103139 8.81775 0.000135113H5.25C4.2558 0.00132601 3.30267 0.396797 2.59966 1.0998C1.89666 1.8028 1.50119 2.75594 1.5 3.75013V11.2501C1.50119 12.2443 1.89666 13.1975 2.59966 13.9005C3.30267 14.6035 4.2558 14.9989 5.25 15.0001H9.75ZM3 11.2501V3.75013C3 3.1534 3.23705 2.5811 3.65901 2.15914C4.08097 1.73719 4.65326 1.50014 5.25 1.50014C5.25 1.50014 8.93925 1.51064 9 1.51814V3.00013C9 3.39796 9.15803 3.77949 9.43934 4.0608C9.72064 4.3421 10.1022 4.50013 10.5 4.50013H11.982C11.9895 4.56088 12 11.2501 12 11.2501C12 11.8469 11.7629 12.4192 11.341 12.8411C10.919 13.2631 10.3467 13.5001 9.75 13.5001H5.25C4.65326 13.5001 4.08097 13.2631 3.65901 12.8411C3.23705 12.4192 3 11.8469 3 11.2501ZM16.5 6.00013V14.2501C16.4988 15.2443 16.1033 16.1975 15.4003 16.9005C14.6973 17.6035 13.7442 17.9989 12.75 18.0001H6C5.80109 18.0001 5.61032 17.9211 5.46967 17.7805C5.32902 17.6398 5.25 17.449 5.25 17.2501C5.25 17.0512 5.32902 16.8605 5.46967 16.7198C5.61032 16.5792 5.80109 16.5001 6 16.5001H12.75C13.3467 16.5001 13.919 16.2631 14.341 15.8411C14.7629 15.4192 15 14.8469 15 14.2501V6.00013C15 5.80122 15.079 5.61046 15.2197 5.4698C15.3603 5.32915 15.5511 5.25013 15.75 5.25013C15.9489 5.25013 16.1397 5.32915 16.2803 5.4698C16.421 5.61046 16.5 5.80122 16.5 6.00013Z" fill="#00A2D4"/>
</g>
<defs>
<clipPath id="clip0_13250_93926">
<rect width="18" height="18" fill="white"/>
</clipPath>
</defs>
</svg>
