<svg width="24" height="24" viewBox="0 0 24 24" fill="none" xmlns="http://www.w3.org/2000/svg">
<path fill-rule="evenodd" clip-rule="evenodd" d="M12 16.5411C11.586 16.5411 11.25 16.2051 11.25 15.7911V3.75012C11.25 3.33612 11.586 3.00012 12 3.00012C12.414 3.00012 12.75 3.33612 12.75 3.75012V15.7911C12.75 16.2051 12.414 16.5411 12 16.5411Z" fill="#00A2D4"/>
<path fill-rule="evenodd" clip-rule="evenodd" d="M12.0013 16.5412C11.8023 16.5412 11.6103 16.4622 11.4703 16.3202L8.55431 13.3932C8.26231 13.0992 8.26331 12.6242 8.55631 12.3322C8.85031 12.0402 9.32431 12.0402 9.61631 12.3342L12.0013 14.7292L14.3863 12.3342C14.6783 12.0402 15.1523 12.0402 15.4463 12.3322C15.7393 12.6242 15.7403 13.0992 15.4483 13.3932L12.5323 16.3202C12.3923 16.4622 12.2003 16.5412 12.0013 16.5412Z" fill="#00A2D4"/>
<mask id="mask0_14450_24461" style="mask-type:luminance" maskUnits="userSpaceOnUse" x="2" y="7" width="20" height="15">
<path fill-rule="evenodd" clip-rule="evenodd" d="M2 7.73267H21.9998V21.4767H2V7.73267Z" fill="white"/>
</mask>
<g mask="url(#mask0_14450_24461)">
<path fill-rule="evenodd" clip-rule="evenodd" d="M17.575 21.4767H6.435C3.99 21.4767 2 19.4877 2 17.0417V12.1567C2 9.71667 3.985 7.73267 6.426 7.73267H7.367C7.781 7.73267 8.117 8.06867 8.117 8.48267C8.117 8.89667 7.781 9.23267 7.367 9.23267H6.426C4.812 9.23267 3.5 10.5437 3.5 12.1567V17.0417C3.5 18.6607 4.816 19.9767 6.435 19.9767H17.575C19.187 19.9767 20.5 18.6637 20.5 17.0517V12.1677C20.5 10.5487 19.183 9.23267 17.566 9.23267H16.634C16.22 9.23267 15.884 8.89667 15.884 8.48267C15.884 8.06867 16.22 7.73267 16.634 7.73267H17.566C20.011 7.73267 22 9.72267 22 12.1677V17.0517C22 19.4917 20.014 21.4767 17.575 21.4767Z" fill="#00A2D4"/>
</g>
</svg>
