<svg width="16" height="16" viewBox="0 0 16 16" fill="none" xmlns="http://www.w3.org/2000/svg">
<path d="M14.4 9.60039C15.2837 9.60039 16 8.88405 16 8.00039C16 7.11674 15.2837 6.40039 14.4 6.40039C13.5163 6.40039 12.8 7.11674 12.8 8.00039C12.8 8.88405 13.5163 9.60039 14.4 9.60039Z" fill="#6B7280"/>
<path d="M8 9.60039C8.88366 9.60039 9.6 8.88405 9.6 8.00039C9.6 7.11674 8.88366 6.40039 8 6.40039C7.11634 6.40039 6.4 7.11674 6.4 8.00039C6.4 8.88405 7.11634 9.60039 8 9.60039Z" fill="#6B7280"/>
<path d="M1.6 9.60039C2.48366 9.60039 3.2 8.88405 3.2 8.00039C3.2 7.11674 2.48366 6.40039 1.6 6.40039C0.716344 6.40039 0 7.11674 0 8.00039C0 8.88405 0.716344 9.60039 1.6 9.60039Z" fill="#6B7280"/>
</svg>
