<svg width="12" height="13" viewBox="0 0 12 13" fill="none" xmlns="http://www.w3.org/2000/svg">
<path d="M6 0.5C4.81331 0.5 3.65328 0.851894 2.66658 1.51118C1.67989 2.17047 0.910851 3.10754 0.456725 4.2039C0.0025997 5.30025 -0.11622 6.50665 0.115291 7.67054C0.346802 8.83443 0.918247 9.90352 1.75736 10.7426C2.59648 11.5818 3.66557 12.1532 4.82946 12.3847C5.99335 12.6162 7.19975 12.4974 8.2961 12.0433C9.39246 11.5891 10.3295 10.8201 10.9888 9.83342C11.6481 8.84672 12 7.68669 12 6.5C11.9983 4.90924 11.3656 3.38413 10.2407 2.25929C9.11587 1.13445 7.59076 0.501747 6 0.5V0.5ZM8.3892 8.8892C8.27669 9.00168 8.1241 9.06487 7.965 9.06487C7.8059 9.06487 7.65332 9.00168 7.5408 8.8892L5.5764 6.9248C5.46417 6.81181 5.40082 6.65925 5.4 6.5V4.1C5.4 3.94087 5.46322 3.78826 5.57574 3.67574C5.68826 3.56321 5.84087 3.5 6 3.5C6.15913 3.5 6.31174 3.56321 6.42427 3.67574C6.53679 3.78826 6.6 3.94087 6.6 4.1V6.2516L8.3892 8.0408C8.50168 8.15331 8.56487 8.3059 8.56487 8.465C8.56487 8.6241 8.50168 8.77668 8.3892 8.8892V8.8892Z" fill="#6B7280"/>
</svg>
